<svg width="17" height="13" viewBox="0 -1 17 13" fill="none" xmlns="http://www.w3.org/2000/svg">
    <path d="M1.09769 2.06646H12.1595V0.0398788H1.09769C0.491482 0.0398788 0 0.493562 0 1.05315C0 1.61274 0.491482 2.06646 1.09769 2.06646Z" fill="black"/>
    <svg width="13" height="3" viewBox="0 -3 13 3" fill="none" xmlns="http://www.w3.org/2000/svg">
        <path d="M1.09769 2.62628H12.1595V0.599693H1.09769C0.491482 0.599693 0 1.05338 0 1.61301C0 2.17263 0.491482 2.62628 1.09769 2.62628Z" fill="black"/>
    </svg>
    <svg width="10" height="3" viewBox="0 -7 10 3" fill="none" xmlns="http://www.w3.org/2000/svg">
        <path d="M1.11053 0.159508C0.49723 0.159508 0 0.613191 0 1.17282C0 1.73245 0.49723 2.18609 1.11053 2.18609H9.41547C8.81564 1.52072 8.81564 1.21971 8.81564 1.1728C8.81564 1.09297 8.81564 0.720665 9.03039 0.159508H1.11053Z" fill="black"/>
    </svg>
    <svg width="7" height="2" viewBox="-14 2 10 0" fill="none" xmlns="http://www.w3.org/2000/svg">
        <path d="M9.75922 11.6529C9.10416 11.0106 8.23928 11.6529 7.73263 12.1595L6.71934 13.1728L6.16118 13.7566V1.39558C6.16118 0.624787 5.94059 0 5.15438 0C4.36817 0 4.09703 0.62483 4.09703 1.39558V13.7566L2.56203 12.178C2.00611 11.633 1.1958 11.1078 0.639875 11.6529C0.133342 12.1496 0.590951 13.1344 1.14688 13.6794L4.1866 17.226C4.74143 17.7701 5.65687 17.7719 6.21319 17.226L9.25307 13.6794C9.80895 13.1344 10.3151 12.1979 9.75922 11.6529Z" fill="black"/>
    </svg>
</svg>
